<mxfile host="app.diagrams.net" modified="2023-05-12T03:35:39.496Z" agent="Mozilla/5.0 (Windows NT 10.0; Win64; x64; rv:109.0) Gecko/20100101 Firefox/113.0" etag="zuTWMMhUSzWe5TvcdwDG" version="21.2.9" type="device">
  <diagram name="Page-1" id="OtUMB2tLBQ-O7a9zXMLh">
    <mxGraphModel dx="1434" dy="731" grid="1" gridSize="10" guides="1" tooltips="1" connect="1" arrows="1" fold="1" page="1" pageScale="1" pageWidth="850" pageHeight="1100" background="#F0F0F0" math="0" shadow="0">
      <root>
        <mxCell id="0" />
        <mxCell id="1" parent="0" />
        <mxCell id="SdQNqddWvItie9GcpCU8-2" value="&lt;div&gt;Customer&lt;/div&gt;" style="swimlane;horizontal=0;whiteSpace=wrap;html=1;fillColor=#dae8fc;strokeColor=#6c8ebf;rounded=0;shadow=0;glass=0;swimlaneFillColor=#fafafa;" parent="1" vertex="1">
          <mxGeometry x="310" y="210" width="1050" height="135" as="geometry" />
        </mxCell>
        <mxCell id="SdQNqddWvItie9GcpCU8-7" value="Start" style="ellipse;whiteSpace=wrap;html=1;aspect=fixed;fillColor=#ffe6cc;strokeColor=#d79b00;" parent="SdQNqddWvItie9GcpCU8-2" vertex="1">
          <mxGeometry x="50" y="40" width="60" height="60" as="geometry" />
        </mxCell>
        <mxCell id="SdQNqddWvItie9GcpCU8-38" value="" style="edgeStyle=orthogonalEdgeStyle;rounded=0;orthogonalLoop=1;jettySize=auto;html=1;fillColor=#fff2cc;strokeColor=#000000;" parent="SdQNqddWvItie9GcpCU8-2" source="SdQNqddWvItie9GcpCU8-33" target="SdQNqddWvItie9GcpCU8-37" edge="1">
          <mxGeometry relative="1" as="geometry" />
        </mxCell>
        <mxCell id="SdQNqddWvItie9GcpCU8-33" value="Confirm availability" style="whiteSpace=wrap;html=1;rounded=1;fillColor=#fff2cc;strokeColor=#d6b656;" parent="SdQNqddWvItie9GcpCU8-2" vertex="1">
          <mxGeometry x="620" y="32.5" width="70" height="70" as="geometry" />
        </mxCell>
        <mxCell id="9Hv8hVeZl6TZAGIdS-Sh-14" value="" style="edgeStyle=orthogonalEdgeStyle;rounded=0;orthogonalLoop=1;jettySize=auto;html=1;fillColor=#fff2cc;strokeColor=#000000;" parent="SdQNqddWvItie9GcpCU8-2" source="SdQNqddWvItie9GcpCU8-37" target="9Hv8hVeZl6TZAGIdS-Sh-10" edge="1">
          <mxGeometry relative="1" as="geometry" />
        </mxCell>
        <mxCell id="SdQNqddWvItie9GcpCU8-37" value="Receive service" style="whiteSpace=wrap;html=1;rounded=1;fillColor=#fff2cc;strokeColor=#d6b656;" parent="SdQNqddWvItie9GcpCU8-2" vertex="1">
          <mxGeometry x="730" y="32.5" width="80" height="70" as="geometry" />
        </mxCell>
        <mxCell id="cAwKn6To6EhfXgqqOtdB-1" value="" style="edgeStyle=orthogonalEdgeStyle;rounded=0;orthogonalLoop=1;jettySize=auto;html=1;" parent="SdQNqddWvItie9GcpCU8-2" source="SdQNqddWvItie9GcpCU8-7" target="SdQNqddWvItie9GcpCU8-9" edge="1">
          <mxGeometry relative="1" as="geometry">
            <mxPoint x="180" y="185" as="targetPoint" />
            <mxPoint x="130" y="185" as="sourcePoint" />
            <Array as="points">
              <mxPoint x="90" y="80" />
              <mxPoint x="90" y="80" />
            </Array>
          </mxGeometry>
        </mxCell>
        <mxCell id="SdQNqddWvItie9GcpCU8-9" value="Order service" style="rounded=1;whiteSpace=wrap;html=1;fillColor=#fff2cc;strokeColor=#d6b656;" parent="SdQNqddWvItie9GcpCU8-2" vertex="1">
          <mxGeometry x="155" y="35" width="60" height="70" as="geometry" />
        </mxCell>
        <mxCell id="9Hv8hVeZl6TZAGIdS-Sh-5" value="&lt;div&gt;End&lt;/div&gt;" style="ellipse;whiteSpace=wrap;html=1;aspect=fixed;fillColor=#ffe6cc;strokeColor=#d79b00;" parent="SdQNqddWvItie9GcpCU8-2" vertex="1">
          <mxGeometry x="970" y="37.5" width="60" height="60" as="geometry" />
        </mxCell>
        <mxCell id="9Hv8hVeZl6TZAGIdS-Sh-13" value="" style="edgeStyle=orthogonalEdgeStyle;rounded=0;orthogonalLoop=1;jettySize=auto;html=1;" parent="SdQNqddWvItie9GcpCU8-2" source="9Hv8hVeZl6TZAGIdS-Sh-10" target="9Hv8hVeZl6TZAGIdS-Sh-5" edge="1">
          <mxGeometry relative="1" as="geometry" />
        </mxCell>
        <mxCell id="9Hv8hVeZl6TZAGIdS-Sh-10" value="Give Feedback" style="whiteSpace=wrap;html=1;rounded=1;fillColor=#fff2cc;strokeColor=#d6b656;" parent="SdQNqddWvItie9GcpCU8-2" vertex="1">
          <mxGeometry x="850" y="32.5" width="80" height="70" as="geometry" />
        </mxCell>
        <mxCell id="SdQNqddWvItie9GcpCU8-4" value="CTS" style="swimlane;horizontal=0;whiteSpace=wrap;html=1;startSize=20;fillColor=#dae8fc;strokeColor=#6c8ebf;rounded=0;swimlaneFillColor=#fafafa;" parent="1" vertex="1">
          <mxGeometry x="310" y="370" width="1050" height="280" as="geometry">
            <mxRectangle x="30" y="300" width="40" height="130" as="alternateBounds" />
          </mxGeometry>
        </mxCell>
        <mxCell id="SdQNqddWvItie9GcpCU8-5" value="Management" style="swimlane;horizontal=0;whiteSpace=wrap;html=1;fillColor=#e1d5e7;strokeColor=#9673a6;rounded=0;swimlaneFillColor=#fafafa;" parent="SdQNqddWvItie9GcpCU8-4" vertex="1">
          <mxGeometry x="20" width="1030" height="140" as="geometry" />
        </mxCell>
        <mxCell id="SdQNqddWvItie9GcpCU8-24" value="" style="edgeStyle=orthogonalEdgeStyle;rounded=0;orthogonalLoop=1;jettySize=auto;html=1;" parent="SdQNqddWvItie9GcpCU8-5" source="SdQNqddWvItie9GcpCU8-11" target="SdQNqddWvItie9GcpCU8-23" edge="1">
          <mxGeometry relative="1" as="geometry" />
        </mxCell>
        <mxCell id="SdQNqddWvItie9GcpCU8-11" value="Receive order" style="rounded=1;whiteSpace=wrap;html=1;fillColor=#fff2cc;strokeColor=#d6b656;" parent="SdQNqddWvItie9GcpCU8-5" vertex="1">
          <mxGeometry x="130" y="40" width="70" height="70" as="geometry" />
        </mxCell>
        <mxCell id="SdQNqddWvItie9GcpCU8-29" value="" style="edgeStyle=orthogonalEdgeStyle;rounded=0;orthogonalLoop=1;jettySize=auto;html=1;fillColor=#fff2cc;strokeColor=#000000;" parent="SdQNqddWvItie9GcpCU8-5" source="SdQNqddWvItie9GcpCU8-14" target="SdQNqddWvItie9GcpCU8-28" edge="1">
          <mxGeometry relative="1" as="geometry" />
        </mxCell>
        <mxCell id="SdQNqddWvItie9GcpCU8-14" value="Assign to employee" style="whiteSpace=wrap;html=1;rounded=1;fillColor=#fff2cc;strokeColor=#d6b656;" parent="SdQNqddWvItie9GcpCU8-5" vertex="1">
          <mxGeometry x="340" y="40" width="75" height="70" as="geometry" />
        </mxCell>
        <mxCell id="SdQNqddWvItie9GcpCU8-25" value="" style="edgeStyle=orthogonalEdgeStyle;rounded=0;orthogonalLoop=1;jettySize=auto;html=1;fillColor=#fff2cc;strokeColor=#000000;" parent="SdQNqddWvItie9GcpCU8-5" source="SdQNqddWvItie9GcpCU8-23" target="SdQNqddWvItie9GcpCU8-14" edge="1">
          <mxGeometry relative="1" as="geometry" />
        </mxCell>
        <mxCell id="SdQNqddWvItie9GcpCU8-23" value="Check service type" style="rounded=1;whiteSpace=wrap;html=1;fillColor=#fff2cc;strokeColor=#d6b656;" parent="SdQNqddWvItie9GcpCU8-5" vertex="1">
          <mxGeometry x="240" y="40" width="70" height="70" as="geometry" />
        </mxCell>
        <mxCell id="SdQNqddWvItie9GcpCU8-32" value="" style="edgeStyle=orthogonalEdgeStyle;rounded=0;orthogonalLoop=1;jettySize=auto;html=1;fillColor=#fff2cc;strokeColor=#000000;" parent="SdQNqddWvItie9GcpCU8-5" source="SdQNqddWvItie9GcpCU8-28" target="SdQNqddWvItie9GcpCU8-31" edge="1">
          <mxGeometry relative="1" as="geometry" />
        </mxCell>
        <mxCell id="SdQNqddWvItie9GcpCU8-28" value="Get user and service data" style="whiteSpace=wrap;html=1;rounded=1;fillColor=#fff2cc;strokeColor=#d6b656;" parent="SdQNqddWvItie9GcpCU8-5" vertex="1">
          <mxGeometry x="450" y="40" width="90" height="70" as="geometry" />
        </mxCell>
        <mxCell id="SdQNqddWvItie9GcpCU8-31" value="Check customer availability" style="whiteSpace=wrap;html=1;rounded=1;fillColor=#fff2cc;strokeColor=#d6b656;" parent="SdQNqddWvItie9GcpCU8-5" vertex="1">
          <mxGeometry x="580" y="40" width="110" height="70" as="geometry" />
        </mxCell>
        <mxCell id="9Hv8hVeZl6TZAGIdS-Sh-7" value="" style="edgeStyle=orthogonalEdgeStyle;rounded=0;orthogonalLoop=1;jettySize=auto;html=1;entryX=0;entryY=0.5;entryDx=0;entryDy=0;" parent="SdQNqddWvItie9GcpCU8-5" source="9Hv8hVeZl6TZAGIdS-Sh-3" target="SdQNqddWvItie9GcpCU8-11" edge="1">
          <mxGeometry relative="1" as="geometry">
            <mxPoint x="90" y="120" as="targetPoint" />
          </mxGeometry>
        </mxCell>
        <mxCell id="9Hv8hVeZl6TZAGIdS-Sh-3" value="Start" style="ellipse;whiteSpace=wrap;html=1;aspect=fixed;fillColor=#ffe6cc;strokeColor=#d79b00;" parent="SdQNqddWvItie9GcpCU8-5" vertex="1">
          <mxGeometry x="30" y="45" width="60" height="60" as="geometry" />
        </mxCell>
        <mxCell id="9Hv8hVeZl6TZAGIdS-Sh-17" value="" style="edgeStyle=orthogonalEdgeStyle;rounded=0;orthogonalLoop=1;jettySize=auto;html=1;" parent="SdQNqddWvItie9GcpCU8-5" source="9Hv8hVeZl6TZAGIdS-Sh-11" target="9Hv8hVeZl6TZAGIdS-Sh-15" edge="1">
          <mxGeometry relative="1" as="geometry" />
        </mxCell>
        <mxCell id="9Hv8hVeZl6TZAGIdS-Sh-11" value="Receive Feedback" style="whiteSpace=wrap;html=1;rounded=1;fillColor=#fff2cc;strokeColor=#d6b656;" parent="SdQNqddWvItie9GcpCU8-5" vertex="1">
          <mxGeometry x="830" y="40" width="80" height="70" as="geometry" />
        </mxCell>
        <mxCell id="9Hv8hVeZl6TZAGIdS-Sh-15" value="&lt;div&gt;End&lt;/div&gt;" style="ellipse;whiteSpace=wrap;html=1;aspect=fixed;fillColor=#ffe6cc;strokeColor=#d79b00;" parent="SdQNqddWvItie9GcpCU8-5" vertex="1">
          <mxGeometry x="950" y="45" width="60" height="60" as="geometry" />
        </mxCell>
        <mxCell id="SdQNqddWvItie9GcpCU8-6" value="Server (Employee)" style="swimlane;horizontal=0;whiteSpace=wrap;html=1;fillColor=#e1d5e7;strokeColor=#9673a6;" parent="1" vertex="1">
          <mxGeometry x="330" y="510" width="1030" height="140" as="geometry" />
        </mxCell>
        <mxCell id="SdQNqddWvItie9GcpCU8-19" value="" style="edgeStyle=orthogonalEdgeStyle;rounded=0;orthogonalLoop=1;jettySize=auto;html=1;fillColor=#fff2cc;strokeColor=#000000;" parent="SdQNqddWvItie9GcpCU8-6" source="SdQNqddWvItie9GcpCU8-17" target="SdQNqddWvItie9GcpCU8-18" edge="1">
          <mxGeometry relative="1" as="geometry" />
        </mxCell>
        <mxCell id="SdQNqddWvItie9GcpCU8-17" value="Check future services" style="whiteSpace=wrap;html=1;rounded=1;fillColor=#fff2cc;strokeColor=#d6b656;" parent="SdQNqddWvItie9GcpCU8-6" vertex="1">
          <mxGeometry x="335" y="40" width="85" height="70" as="geometry" />
        </mxCell>
        <mxCell id="SdQNqddWvItie9GcpCU8-36" value="" style="edgeStyle=orthogonalEdgeStyle;rounded=0;orthogonalLoop=1;jettySize=auto;html=1;fillColor=#fff2cc;strokeColor=#000000;" parent="SdQNqddWvItie9GcpCU8-6" source="SdQNqddWvItie9GcpCU8-18" target="SdQNqddWvItie9GcpCU8-35" edge="1">
          <mxGeometry relative="1" as="geometry" />
        </mxCell>
        <mxCell id="SdQNqddWvItie9GcpCU8-18" value="Prepare material" style="whiteSpace=wrap;html=1;rounded=1;fillColor=#fff2cc;strokeColor=#d6b656;" parent="SdQNqddWvItie9GcpCU8-6" vertex="1">
          <mxGeometry x="460" y="40" width="70" height="70" as="geometry" />
        </mxCell>
        <mxCell id="SdQNqddWvItie9GcpCU8-35" value="Execute service" style="whiteSpace=wrap;html=1;rounded=1;fillColor=#fff2cc;strokeColor=#d6b656;" parent="SdQNqddWvItie9GcpCU8-6" vertex="1">
          <mxGeometry x="703.75" y="40" width="92.5" height="70" as="geometry" />
        </mxCell>
        <mxCell id="SdQNqddWvItie9GcpCU8-10" style="edgeStyle=orthogonalEdgeStyle;rounded=0;orthogonalLoop=1;jettySize=auto;html=1;entryX=0.5;entryY=0;entryDx=0;entryDy=0;" parent="1" source="SdQNqddWvItie9GcpCU8-9" target="SdQNqddWvItie9GcpCU8-11" edge="1">
          <mxGeometry relative="1" as="geometry">
            <mxPoint x="560" y="410" as="targetPoint" />
          </mxGeometry>
        </mxCell>
        <mxCell id="SdQNqddWvItie9GcpCU8-16" style="edgeStyle=orthogonalEdgeStyle;rounded=0;orthogonalLoop=1;jettySize=auto;html=1;entryX=0.5;entryY=0;entryDx=0;entryDy=0;fillColor=#fff2cc;strokeColor=#000000;" parent="1" source="SdQNqddWvItie9GcpCU8-14" target="SdQNqddWvItie9GcpCU8-17" edge="1">
          <mxGeometry relative="1" as="geometry">
            <mxPoint x="673" y="550" as="targetPoint" />
          </mxGeometry>
        </mxCell>
        <mxCell id="SdQNqddWvItie9GcpCU8-30" value="" style="edgeStyle=orthogonalEdgeStyle;rounded=0;orthogonalLoop=1;jettySize=auto;html=1;fillColor=#fff2cc;strokeColor=#000000;" parent="1" source="SdQNqddWvItie9GcpCU8-28" target="SdQNqddWvItie9GcpCU8-18" edge="1">
          <mxGeometry relative="1" as="geometry" />
        </mxCell>
        <mxCell id="SdQNqddWvItie9GcpCU8-34" value="" style="edgeStyle=orthogonalEdgeStyle;rounded=0;orthogonalLoop=1;jettySize=auto;html=1;fillColor=#fff2cc;strokeColor=#000000;" parent="1" source="SdQNqddWvItie9GcpCU8-31" target="SdQNqddWvItie9GcpCU8-33" edge="1">
          <mxGeometry relative="1" as="geometry" />
        </mxCell>
        <mxCell id="SdQNqddWvItie9GcpCU8-41" value="" style="edgeStyle=orthogonalEdgeStyle;rounded=0;orthogonalLoop=1;jettySize=auto;html=1;entryX=0.5;entryY=1;entryDx=0;entryDy=0;fillColor=#fff2cc;strokeColor=#000000;" parent="1" source="SdQNqddWvItie9GcpCU8-35" target="SdQNqddWvItie9GcpCU8-37" edge="1">
          <mxGeometry relative="1" as="geometry">
            <mxPoint x="991.3000000000002" y="475" as="targetPoint" />
          </mxGeometry>
        </mxCell>
        <mxCell id="9Hv8hVeZl6TZAGIdS-Sh-12" value="" style="edgeStyle=orthogonalEdgeStyle;rounded=0;orthogonalLoop=1;jettySize=auto;html=1;fillColor=#fff2cc;strokeColor=#000000;" parent="1" source="9Hv8hVeZl6TZAGIdS-Sh-10" target="9Hv8hVeZl6TZAGIdS-Sh-11" edge="1">
          <mxGeometry relative="1" as="geometry" />
        </mxCell>
        <mxCell id="WYlmgksiD6ClPM5T3Wh--1" value="&lt;font style=&quot;font-size: 18px;&quot;&gt;CTS Service Hire and Execution Process&lt;/font&gt;" style="rounded=1;whiteSpace=wrap;html=1;fillColor=#f5f5f5;fillStyle=auto;strokeColor=#666666;glass=0;shadow=1;fontColor=#333333;" vertex="1" parent="1">
          <mxGeometry x="652.5" y="130" width="365" height="60" as="geometry" />
        </mxCell>
      </root>
    </mxGraphModel>
  </diagram>
</mxfile>
